#Comment line ignore any data following # character 
#Hierarchical Translation and Rotation (.htr) file 
[Header]	
#Header keywords are followed by a single value 
FileType HTR		#Single word string
DataType HTRS		#Translation followed by rotation and scale data
FileVersion 1		#integer
NumSegments 84		#integer
NumFrames 2		#integer
DataFrameRate 30		#integer, data frame rate in this file
EulerRotationOrder ZYX
CalibrationUnits mm
RotationUnits Degrees
GlobalAxisofGravity Y
BoneLengthAxis Y
ScaleFactor 1.00
[SegmentNames&Hierarchy]
#CHILD	PARENT
MASTER GLOBAL
root MASTER
chest root
L_mid_tent01 root
R_mid_tent01 root
spine01 root
Bip01_Neck chest
L_humerus chest
R_humerus chest
weapon_bone chest
Bip01_Head Bip01_Neck
eye_left_bone Bip01_Head
eye_right_bone Bip01_Head
L_forearm L_humerus
L_front_hand L_forearm
L_weapon_bone L_forearm
L_front_hand01_01 L_front_hand
L_front_hand02_01 L_front_hand
L_front_hand03_01 L_front_hand
L_front_hand01_02 L_front_hand01_01
L_front_hand02_02 L_front_hand02_01
L_front_hand03_02 L_front_hand03_01
R_forearm R_humerus
R_front_hand R_forearm
R_weapon_bone R_forearm
R_front_hand01_01 R_front_hand
R_front_hand02_01 R_front_hand
R_front_hand03_01 R_front_hand
R_front_hand01_02 R_front_hand01_01
R_front_hand02_02 R_front_hand02_01
R_front_hand03_02 R_front_hand03_01
null_rope01_connect L_mid_tent01
Rope1_Seg01 null_rope01_connect
Rope1_Seg02 Rope1_Seg01
Rope1_Seg03 Rope1_Seg02
Rope1_Seg04 Rope1_Seg03
Rope1_Seg05 Rope1_Seg04
Rope1_Seg06 Rope1_Seg05
Rope1_Seg07 Rope1_Seg06
Rope1_Seg09 Rope1_Seg07
L_mid_hand01 Rope1_Seg09
L_mid_hand02 Rope1_Seg09
L_mid_hand03 Rope1_Seg09
null_rope02_connect R_mid_tent01
Rope2_Seg01 null_rope02_connect
Rope2_Seg02 Rope2_Seg01
Rope2_Seg03 Rope2_Seg02
Rope2_Seg04 Rope2_Seg03
Rope2_Seg05 Rope2_Seg04
Rope2_Seg06 Rope2_Seg05
Rope2_Seg07 Rope2_Seg06
Rope2_Seg09 Rope2_Seg07
R_mid_hand01 Rope2_Seg09
R_mid_hand02 Rope2_Seg09
R_mid_hand03 Rope2_Seg09
spine02 spine01
spine03 spine02
pelvis spine03
null_rope03_connect pelvis
null_rope04_connect pelvis
Rope3_Seg01 null_rope03_connect
Rope3_Seg02 Rope3_Seg01
Rope3_Seg03 Rope3_Seg02
Rope3_Seg04 Rope3_Seg03
Rope3_Seg05 Rope3_Seg04
Rope3_Seg06 Rope3_Seg05
Rope3_Seg07 Rope3_Seg06
Rope3_Seg08 Rope3_Seg07
Rope3_Seg09 Rope3_Seg08
R_rear_hand01 Rope3_Seg09
R_rear_hand02 Rope3_Seg09
R_rear_hand03 Rope3_Seg09
Rope4_Seg01 null_rope04_connect
Rope4_Seg02 Rope4_Seg01
Rope4_Seg03 Rope4_Seg02
Rope4_Seg04 Rope4_Seg03
Rope4_Seg05 Rope4_Seg04
Rope4_Seg06 Rope4_Seg05
Rope4_Seg07 Rope4_Seg06
Rope4_Seg08 Rope4_Seg07
Rope4_Seg09 Rope4_Seg08
L_rear_hand01 Rope4_Seg09
L_rear_hand02 Rope4_Seg09
L_rear_hand03 Rope4_Seg09
[BasePosition]
#SegmentName Tx, Ty, Tz, Rx, Ry, Rz, BoneLength
MASTER 0.000000 0.000000 0.000000 -90.000000 0.000000 0.000000 10.000000 
root 0.000000 0.000000 0.000000 0.000000 0.000000 0.000000 10.000000 
chest 0.000000 0.000000 0.000000 0.000000 0.000000 0.000000 10.000000 
L_mid_tent01 0.000000 0.000000 0.000000 0.000000 0.000000 0.000000 10.000000 
R_mid_tent01 0.000000 0.000000 0.000000 0.000000 0.000000 0.000000 10.000000 
spine01 0.000000 0.000000 0.000000 0.000000 0.000000 0.000000 10.000000 
Bip01_Neck 0.000000 0.000000 0.000000 0.000000 0.000000 0.000000 10.000000 
L_humerus 0.000000 0.000000 0.000000 0.000000 0.000000 0.000000 10.000000 
R_humerus 0.000000 0.000000 0.000000 0.000000 0.000000 0.000000 10.000000 
weapon_bone 0.000000 0.000000 0.000000 0.000000 0.000000 0.000000 10.000000 
Bip01_Head 0.000000 0.000000 0.000000 0.000000 0.000000 0.000000 10.000000 
eye_left_bone 0.000000 0.000000 0.000000 0.000000 0.000000 0.000000 10.000000 
eye_right_bone 0.000000 0.000000 0.000000 0.000000 0.000000 0.000000 10.000000 
L_forearm 0.000000 0.000000 0.000000 0.000000 0.000000 0.000000 10.000000 
L_front_hand 0.000000 0.000000 0.000000 0.000000 0.000000 0.000000 10.000000 
L_weapon_bone 0.000000 0.000000 0.000000 0.000000 0.000000 0.000000 10.000000 
L_front_hand01_01 0.000000 0.000000 0.000000 0.000000 0.000000 0.000000 10.000000 
L_front_hand02_01 0.000000 0.000000 0.000000 0.000000 0.000000 0.000000 10.000000 
L_front_hand03_01 0.000000 0.000000 0.000000 0.000000 0.000000 0.000000 10.000000 
L_front_hand01_02 0.000000 0.000000 0.000000 0.000000 0.000000 0.000000 10.000000 
L_front_hand02_02 0.000000 0.000000 0.000000 0.000000 0.000000 0.000000 10.000000 
L_front_hand03_02 0.000000 0.000000 0.000000 0.000000 0.000000 0.000000 10.000000 
R_forearm 0.000000 0.000000 0.000000 0.000000 0.000000 0.000000 10.000000 
R_front_hand 0.000000 0.000000 0.000000 0.000000 0.000000 0.000000 10.000000 
R_weapon_bone 0.000000 0.000000 0.000000 0.000000 0.000000 0.000000 10.000000 
R_front_hand01_01 0.000000 0.000000 0.000000 0.000000 0.000000 0.000000 10.000000 
R_front_hand02_01 0.000000 0.000000 0.000000 0.000000 0.000000 0.000000 10.000000 
R_front_hand03_01 0.000000 0.000000 0.000000 0.000000 0.000000 0.000000 10.000000 
R_front_hand01_02 0.000000 0.000000 0.000000 0.000000 0.000000 0.000000 10.000000 
R_front_hand02_02 0.000000 0.000000 0.000000 0.000000 0.000000 0.000000 10.000000 
R_front_hand03_02 0.000000 0.000000 0.000000 0.000000 0.000000 0.000000 10.000000 
null_rope01_connect 0.000000 0.000000 0.000000 0.000000 0.000000 0.000000 10.000000 
Rope1_Seg01 0.000000 0.000000 0.000000 0.000000 0.000000 0.000000 10.000000 
Rope1_Seg02 0.000000 0.000000 0.000000 0.000000 0.000000 0.000000 10.000000 
Rope1_Seg03 0.000000 0.000000 0.000000 0.000000 0.000000 0.000000 10.000000 
Rope1_Seg04 0.000000 0.000000 0.000000 0.000000 0.000000 0.000000 10.000000 
Rope1_Seg05 0.000000 0.000000 0.000000 0.000000 0.000000 0.000000 10.000000 
Rope1_Seg06 0.000000 0.000000 0.000000 0.000000 0.000000 0.000000 10.000000 
Rope1_Seg07 0.000000 0.000000 0.000000 0.000000 0.000000 0.000000 10.000000 
Rope1_Seg09 0.000000 0.000000 0.000000 0.000000 0.000000 0.000000 10.000000 
L_mid_hand01 0.000000 0.000000 0.000000 0.000000 0.000000 0.000000 10.000000 
L_mid_hand02 0.000000 0.000000 0.000000 0.000000 0.000000 0.000000 10.000000 
L_mid_hand03 0.000000 0.000000 0.000000 0.000000 0.000000 0.000000 10.000000 
null_rope02_connect 0.000000 0.000000 0.000000 0.000000 0.000000 0.000000 10.000000 
Rope2_Seg01 0.000000 0.000000 0.000000 0.000000 0.000000 0.000000 10.000000 
Rope2_Seg02 0.000000 0.000000 0.000000 0.000000 0.000000 0.000000 10.000000 
Rope2_Seg03 0.000000 0.000000 0.000000 0.000000 0.000000 0.000000 10.000000 
Rope2_Seg04 0.000000 0.000000 0.000000 0.000000 0.000000 0.000000 10.000000 
Rope2_Seg05 0.000000 0.000000 0.000000 0.000000 0.000000 0.000000 10.000000 
Rope2_Seg06 0.000000 0.000000 0.000000 0.000000 0.000000 0.000000 10.000000 
Rope2_Seg07 0.000000 0.000000 0.000000 0.000000 0.000000 0.000000 10.000000 
Rope2_Seg09 0.000000 0.000000 0.000000 0.000000 0.000000 0.000000 10.000000 
R_mid_hand01 0.000000 0.000000 0.000000 0.000000 0.000000 0.000000 10.000000 
R_mid_hand02 0.000000 0.000000 0.000000 0.000000 0.000000 0.000000 10.000000 
R_mid_hand03 0.000000 0.000000 0.000000 0.000000 0.000000 0.000000 10.000000 
spine02 0.000000 0.000000 0.000000 0.000000 0.000000 0.000000 10.000000 
spine03 0.000000 0.000000 0.000000 0.000000 0.000000 0.000000 10.000000 
pelvis 0.000000 0.000000 0.000000 0.000000 0.000000 0.000000 10.000000 
null_rope03_connect 0.000000 0.000000 0.000000 0.000000 0.000000 0.000000 10.000000 
null_rope04_connect 0.000000 0.000000 0.000000 0.000000 0.000000 0.000000 10.000000 
Rope3_Seg01 0.000000 0.000000 0.000000 0.000000 0.000000 0.000000 10.000000 
Rope3_Seg02 0.000000 0.000000 0.000000 0.000000 0.000000 0.000000 10.000000 
Rope3_Seg03 0.000000 0.000000 0.000000 0.000000 0.000000 0.000000 10.000000 
Rope3_Seg04 0.000000 0.000000 0.000000 0.000000 0.000000 0.000000 10.000000 
Rope3_Seg05 0.000000 0.000000 0.000000 0.000000 0.000000 0.000000 10.000000 
Rope3_Seg06 0.000000 0.000000 0.000000 0.000000 0.000000 0.000000 10.000000 
Rope3_Seg07 0.000000 0.000000 0.000000 0.000000 0.000000 0.000000 10.000000 
Rope3_Seg08 0.000000 0.000000 0.000000 0.000000 0.000000 0.000000 10.000000 
Rope3_Seg09 0.000000 0.000000 0.000000 0.000000 0.000000 0.000000 10.000000 
R_rear_hand01 0.000000 0.000000 0.000000 0.000000 0.000000 0.000000 10.000000 
R_rear_hand02 0.000000 0.000000 0.000000 0.000000 0.000000 0.000000 10.000000 
R_rear_hand03 0.000000 0.000000 0.000000 0.000000 0.000000 0.000000 10.000000 
Rope4_Seg01 0.000000 0.000000 0.000000 0.000000 0.000000 0.000000 10.000000 
Rope4_Seg02 0.000000 0.000000 0.000000 0.000000 0.000000 0.000000 10.000000 
Rope4_Seg03 0.000000 0.000000 0.000000 0.000000 0.000000 0.000000 10.000000 
Rope4_Seg04 0.000000 0.000000 0.000000 0.000000 0.000000 0.000000 10.000000 
Rope4_Seg05 0.000000 0.000000 0.000000 0.000000 0.000000 0.000000 10.000000 
Rope4_Seg06 0.000000 0.000000 0.000000 0.000000 0.000000 0.000000 10.000000 
Rope4_Seg07 0.000000 0.000000 0.000000 0.000000 0.000000 0.000000 10.000000 
Rope4_Seg08 0.000000 0.000000 0.000000 0.000000 0.000000 0.000000 10.000000 
Rope4_Seg09 0.000000 0.000000 0.000000 0.000000 0.000000 0.000000 10.000000 
L_rear_hand01 0.000000 0.000000 0.000000 0.000000 0.000000 0.000000 10.000000 
L_rear_hand02 0.000000 0.000000 0.000000 0.000000 0.000000 0.000000 10.000000 
L_rear_hand03 0.000000 0.000000 0.000000 0.000000 0.000000 0.000000 10.000000 
#Beginning of Data. Separated by tabs
#Fr	Tx	Ty	Tz	Rx	Ry	Rz	SF
[MASTER]
1 0.000000 0.000000 0.000000 0.001660 0.001660 0.001660 0.000000
2 266.342743 294.437653 -113.893684 0.001660 0.001660 0.001660 413.042053
[root]
1 20.013220 -118.897346 462.015289 -164.073257 -14.435045 -72.548546 477.488495
2 -128.018097 -123.315163 517.457947 -171.572571 -10.505275 -68.843147 547.136169
[chest]
1 -84.512650 -34.090519 0.000000 -52.543568 -29.108019 -171.005081 91.129311
2 -84.512650 -34.090519 0.000000 -58.841991 -29.519142 -167.950958 91.129311
[L_mid_tent01]
1 27.299042 22.179289 -249.918823 -11.933413 15.098729 35.005299 252.381805
2 27.299034 22.179279 -249.918823 -9.875755 15.380979 42.129433 252.381805
[R_mid_tent01]
1 23.228794 24.509907 226.238495 176.771408 -17.160938 35.364716 228.744751
2 23.228794 24.509907 226.238495 172.151047 -10.727117 43.563274 228.744751
[spine01]
1 -0.361383 -0.195265 0.000000 -0.000001 -0.000007 22.052340 0.410763
2 -0.361383 -0.195265 0.000000 -0.000001 -0.000007 22.052340 0.410763
[Bip01_Neck]
1 165.484543 71.581718 0.000119 176.643677 -1.657967 43.431911 180.302734
2 165.484543 71.581718 0.000119 176.643677 -1.657967 43.431911 180.302734
[L_humerus]
1 -13.983130 -135.272980 -120.471481 152.176331 71.459732 -115.966370 181.680161
2 -13.983130 -135.272980 -120.471481 152.624954 70.917023 -115.516640 181.680161
[R_humerus]
1 -13.983309 -135.273102 125.287651 -81.493019 -63.978539 -179.543030 184.909012
2 -13.983309 -135.273102 125.287651 -85.759041 -65.610138 -175.549606 184.909012
[weapon_bone]
1 235.964890 -300.705902 0.000000 0.000000 -89.951546 -128.212341 382.234833
2 235.964890 -300.705902 0.000000 0.000000 -89.951546 -128.212341 382.234833
[Bip01_Head]
1 213.328430 186.038116 7.613093 2.432479 6.015636 -43.834415 283.155731
2 213.328690 186.037476 7.621647 4.953820 6.152907 -43.833122 283.155731
[eye_left_bone]
1 -24.626970 125.451866 -64.772606 0.000000 -90.000000 -99.840431 143.318359
2 -24.626970 125.451866 -64.772606 0.000000 -90.000000 -99.840431 143.318359
[eye_right_bone]
1 -24.626970 125.451866 64.327362 0.000000 -89.965736 80.156380 143.117676
2 -24.626970 125.451866 64.327362 0.000000 -89.955765 80.156372 143.117676
[L_forearm]
1 322.776093 0.000000 -0.000119 0.000266 -0.002332 -103.031578 322.776093
2 322.776093 0.000000 -0.000119 0.000274 -0.002331 -103.391304 322.776093
[L_front_hand]
1 241.149185 -0.042021 -3.300071 -105.490540 -1.835781 -27.423635 241.171753
2 241.149185 -0.042021 -3.300071 -105.490540 -1.835782 -27.423637 241.171753
[L_weapon_bone]
1 156.183838 0.000000 0.000000 0.000014 0.000007 0.000001 156.183838
2 156.183838 0.000000 0.000000 0.000014 0.000007 0.000001 156.183838
[L_front_hand01_01]
1 86.095154 20.947098 -0.655860 -0.366594 -0.477154 75.385574 88.609184
2 86.095154 20.947098 -0.655860 -0.366594 -0.477154 75.385582 88.609184
[L_front_hand02_01]
1 86.935165 -11.437475 24.513514 154.399796 -59.883835 -61.369587 91.046425
2 86.935165 -11.437475 24.513514 154.399796 -59.883835 -61.369587 91.046425
[L_front_hand03_01]
1 86.637497 -14.123976 -20.424902 -153.913849 58.118122 -62.702866 90.126129
2 86.637497 -14.123976 -20.424902 -153.913849 58.118122 -62.702866 90.126129
[L_front_hand01_02]
1 71.020905 -0.000179 0.000030 0.000334 -0.002323 -106.379684 71.020905
2 71.020905 -0.000179 0.000030 0.000334 -0.002323 -106.379684 71.020905
[L_front_hand02_02]
1 71.020927 -0.000119 0.000060 0.000334 -0.002323 -106.379684 71.020927
2 71.020927 -0.000119 0.000060 0.000334 -0.002323 -106.379684 71.020927
[L_front_hand03_02]
1 71.020905 -0.000060 0.000060 0.000334 -0.002323 -106.379684 71.020905
2 71.020905 -0.000060 0.000060 0.000334 -0.002323 -106.379684 71.020905
[R_forearm]
1 322.776428 -0.000060 0.000030 0.206860 0.039786 -101.621811 322.776428
2 322.776428 -0.000060 0.000030 0.207129 0.040923 -101.984993 322.776428
[R_front_hand]
1 238.847015 -0.006795 2.210259 -2.635298 -10.645461 -26.312506 238.857239
2 238.847015 -0.006795 2.210259 -2.635298 -10.645461 -26.312506 238.857239
[R_weapon_bone]
1 155.664093 0.002503 -0.000030 0.003487 0.001180 -90.988930 155.664078
2 155.664093 0.002503 -0.000030 0.003487 0.001180 -90.988930 155.664078
[R_front_hand01_01]
1 87.624611 14.231146 22.918642 -154.633499 -59.950619 61.746044 91.683487
2 87.624611 14.231146 22.918642 -154.633484 -59.950619 61.746037 91.683487
[R_front_hand02_01]
1 89.356956 14.367283 -19.491137 154.602661 58.302849 63.744389 92.579636
2 89.356956 14.367283 -19.491137 154.602661 58.302864 63.744381 92.579636
[R_front_hand03_01]
1 87.286232 -22.307278 -0.143439 0.162155 -0.423168 -75.767921 90.091743
2 87.286232 -22.307278 -0.143439 0.162155 -0.423168 -75.767921 90.091743
[R_front_hand01_02]
1 71.020905 0.000060 0.000119 0.002323 -0.000334 106.381714 71.020905
2 71.020905 0.000060 0.000119 0.002323 -0.000334 106.381721 71.020905
[R_front_hand02_02]
1 71.020844 -0.000030 -0.000119 0.002323 -0.000334 106.381714 71.020836
2 71.020844 -0.000030 -0.000119 0.002323 -0.000334 106.381721 71.020836
[R_front_hand03_02]
1 71.020905 0.000000 0.000030 0.002323 -0.000334 106.381714 71.020905
2 71.020905 0.000000 0.000030 0.002323 -0.000334 106.381721 71.020905
[null_rope01_connect]
1 328.732483 0.000000 -0.000238 -160.508240 -3.341611 -110.763382 328.732483
2 328.732483 0.000000 -0.000238 -162.678513 3.243569 -113.008896 328.732483
[Rope1_Seg01]
1 -0.000019 -0.000038 0.000000 47.354771 -61.626060 60.915810 0.000043
2 -0.000020 -0.000052 0.000000 35.628479 -73.939461 73.659721 0.000056
[Rope1_Seg02]
1 139.999863 -0.000179 0.000000 -0.354650 6.372452 4.193229 139.999863
2 139.999863 -0.000179 0.000000 1.665568 6.862663 5.574039 139.999863
[Rope1_Seg03]
1 139.999924 0.000060 -0.000060 -0.630092 10.666845 7.244697 139.999924
2 139.999924 0.000060 -0.000060 2.879290 11.561142 9.048388 139.999924
[Rope1_Seg04]
1 139.999924 -0.000060 -0.000119 -1.110431 21.057108 13.962350 139.999924
2 139.999924 -0.000060 -0.000119 4.875004 23.546926 14.489152 139.999924
[Rope1_Seg05]
1 139.999832 0.000119 -0.000060 -1.936059 19.756296 16.078384 139.999832
2 139.999832 0.000119 -0.000060 1.774127 14.325701 12.617020 139.999832
[Rope1_Seg06]
1 139.999954 0.000119 -0.000060 -0.973035 5.286746 15.481437 139.999954
2 139.999954 0.000119 -0.000060 0.999457 -1.309471 16.188536 139.999954
[Rope1_Seg07]
1 139.999985 0.000060 0.000000 2.231054 5.570077 21.726992 139.999985
2 139.999985 0.000060 0.000000 5.892575 3.568745 18.591635 139.999985
[Rope1_Seg09]
1 121.602913 0.000119 -0.000089 -89.793175 -1.359789 0.847147 121.602913
2 121.602913 0.000119 -0.000089 -89.793175 -1.359789 0.847147 121.602913
[L_mid_hand01]
1 103.859421 1.038730 8.195221 130.544373 -67.584534 -38.866943 104.187431
2 103.859421 1.038730 8.195221 130.544388 -67.584534 -38.866955 104.187431
[L_mid_hand02]
1 105.572853 -4.139662 -10.864139 -168.923172 43.409309 -73.498886 106.211075
2 105.572853 -4.139662 -10.864139 -168.923172 43.409309 -73.498886 106.211075
[L_mid_hand03]
1 104.641464 17.579376 -3.913581 -6.012627 17.808174 74.893669 106.179977
2 104.641464 17.579376 -3.913581 -6.012625 17.808174 74.893669 106.179977
[null_rope02_connect]
1 328.732849 0.000179 -0.000119 -9.623031 20.531082 100.536545 328.732849
2 328.732849 0.000179 -0.000119 -6.220095 8.121071 109.343544 328.732849
[Rope2_Seg01]
1 0.000000 0.000191 -0.000076 142.759109 79.788696 79.425056 0.000205
2 0.000000 0.000165 -0.000072 -156.884415 63.434685 136.600464 0.000180
[Rope2_Seg02]
1 139.999741 -0.000060 -0.000119 0.209739 10.667918 -6.290287 139.999756
2 139.999741 -0.000060 -0.000119 3.479270 1.896691 -4.351057 139.999756
[Rope2_Seg03]
1 140.000107 0.000030 0.000000 0.988226 21.095858 -12.563654 140.000107
2 140.000107 0.000030 0.000000 7.927628 2.872119 -7.919148 140.000107
[Rope2_Seg04]
1 139.999802 0.000000 -0.000060 115.155106 26.912111 -19.800436 139.999802
2 139.999802 0.000000 -0.000060 36.792244 3.033108 -23.812252 139.999802
[Rope2_Seg05]
1 139.999985 -0.000060 0.000119 14.724336 -10.123537 0.107034 139.999985
2 139.999985 -0.000060 0.000119 49.196918 -11.107173 -31.905798 139.999985
[Rope2_Seg06]
1 139.999893 -0.000030 -0.000119 2.322072 -4.867191 1.200193 139.999893
2 139.999893 -0.000030 -0.000119 8.610620 1.742361 -8.441502 139.999893
[Rope2_Seg07]
1 139.999893 0.000060 -0.000060 1.901052 -3.316842 0.535482 139.999893
2 139.999893 0.000060 -0.000060 6.425174 -3.774013 -4.007351 139.999893
[Rope2_Seg09]
1 121.338966 0.000089 -0.000060 33.793236 -1.359788 -0.847141 121.338966
2 121.338966 0.000089 -0.000060 33.793236 -1.359788 -0.847141 121.338966
[R_mid_hand01]
1 104.680779 11.144459 -10.335981 -16.212063 45.237247 70.462852 105.778534
2 104.680779 11.144459 -10.335981 -16.212059 45.237247 70.462852 105.778534
[R_mid_hand02]
1 104.070427 2.443552 8.231699 49.067368 -67.749771 39.286453 104.424065
2 104.070427 2.443552 8.231699 49.067368 -67.749771 39.286453 104.424065
[R_mid_hand03]
1 106.028137 -11.221827 -5.996406 -177.101105 15.551026 -76.585571 106.788818
2 106.028137 -11.221827 -5.996406 -177.101105 15.551026 -76.585571 106.788818
[spine02]
1 129.756927 0.001550 0.000119 -0.294287 -4.051316 -3.670469 129.756927
2 129.756927 0.001550 0.000119 -0.257410 -4.053606 -4.192667 129.756927
[spine03]
1 78.614067 0.080967 -4.899025 1.500911 4.004913 10.720074 78.766609
2 78.614075 0.081004 -4.899031 1.523618 3.995947 11.044189 78.766617
[pelvis]
1 169.435242 0.051022 0.000000 -0.022188 -0.190796 2.440105 169.435257
2 169.435242 0.051022 0.000000 -0.024699 -0.190646 3.098386 169.435257
[null_rope03_connect]
1 -1.257226 -2.466202 137.391083 -171.092148 -19.947948 -104.056648 137.418976
2 -1.257226 -2.466202 137.391083 -173.294510 -12.130113 -101.176170 137.418976
[null_rope04_connect]
1 -1.259640 -2.480268 -137.844437 -171.092148 -19.947948 -104.056648 137.872513
2 -1.259640 -2.480268 -137.844437 -173.294510 -12.130113 -101.176170 137.872513
[Rope3_Seg01]
1 0.000000 0.000000 0.000000 27.091341 21.591452 -49.127010 0.000000
2 0.000000 0.000000 0.000000 22.225428 19.513123 -62.724102 0.000000
[Rope3_Seg02]
1 139.999924 -0.000119 0.000060 7.940110 15.970813 -29.522041 139.999924
2 139.999924 -0.000119 0.000060 -2.761323 17.888878 -42.792023 139.999924
[Rope3_Seg03]
1 139.999924 -0.000119 0.000119 -2.520835 12.434026 -34.784225 139.999924
2 139.999924 -0.000119 0.000119 -4.298068 12.370602 -13.585404 139.999924
[Rope3_Seg04]
1 139.999924 0.000119 0.000000 -4.119695 4.766398 -16.676327 139.999924
2 139.999924 0.000119 0.000000 -1.785164 -0.942096 -12.612764 139.999924
[Rope3_Seg05]
1 139.999924 -0.000238 0.000060 -9.414769 3.384524 -22.878101 139.999924
2 139.999924 -0.000238 0.000060 -3.369126 -9.181060 -26.496693 139.999924
[Rope3_Seg06]
1 139.999893 -0.000119 -0.000060 -19.069935 6.286611 -22.591955 139.999893
2 139.999893 -0.000119 -0.000060 -16.434946 -5.397519 -21.835701 139.999893
[Rope3_Seg07]
1 139.999771 0.000060 -0.000119 -12.282612 6.296653 -8.798438 139.999771
2 139.999771 0.000060 -0.000119 -24.874874 1.101576 -10.063729 139.999771
[Rope3_Seg08]
1 139.999985 -0.000060 0.000000 -6.629797 4.201323 -3.846335 139.999985
2 139.999985 -0.000060 0.000000 -20.598467 2.778926 -4.622290 139.999985
[Rope3_Seg09]
1 90.185997 -0.000179 -0.000060 89.793228 -1.359877 -0.847183 90.185997
2 90.185997 -0.000179 -0.000060 89.793228 -1.359877 -0.847183 90.185997
[R_rear_hand01]
1 103.366196 -6.073594 -10.757982 172.856537 -15.220671 -75.434441 104.101845
2 103.366196 -6.073594 -10.757982 172.856537 -15.220667 -75.434433 104.101845
[R_rear_hand02]
1 100.509819 12.039542 -7.992327 -12.874829 36.868488 72.167213 101.543350
2 100.509819 12.039542 -7.992327 -12.874829 36.868488 72.167213 101.543350
[R_rear_hand03]
1 101.539970 5.215704 5.435467 71.484581 -71.816628 21.513813 101.819031
2 101.539970 5.215704 5.435467 71.484581 -71.816628 21.513813 101.819031
[Rope4_Seg01]
1 -0.000076 -0.000038 -0.000076 -150.685410 -48.530018 -47.678421 0.000114
2 -0.000080 -0.000036 -0.000076 -158.720383 -63.472000 -49.543804 0.000116
[Rope4_Seg02]
1 139.999985 0.000060 0.000119 5.517681 12.351891 12.313248 139.999985
2 139.999985 0.000060 0.000119 7.227022 13.581845 18.787123 139.999985
[Rope4_Seg03]
1 139.999924 0.000000 -0.000238 4.458858 17.471838 15.475100 139.999924
2 139.999924 0.000000 -0.000238 3.298000 15.591319 18.131685 139.999924
[Rope4_Seg04]
1 139.999985 0.000000 0.000119 1.572185 14.724156 12.878335 139.999985
2 139.999985 0.000000 0.000119 -0.356265 9.773581 10.768454 139.999985
[Rope4_Seg05]
1 139.999802 -0.000060 -0.000119 -0.096149 8.903711 6.650163 139.999802
2 139.999802 -0.000060 -0.000119 -1.544003 7.118639 8.203745 139.999802
[Rope4_Seg06]
1 139.999924 0.000000 0.000060 0.016424 15.018857 9.317593 139.999924
2 139.999924 0.000000 0.000060 -4.166719 9.173452 11.484638 139.999924
[Rope4_Seg07]
1 139.999802 0.000000 0.000000 -7.533137 28.770041 19.963892 139.999802
2 139.999802 0.000000 0.000000 -8.248908 7.705120 11.564051 139.999802
[Rope4_Seg08]
1 139.999924 0.000000 0.000119 -115.159248 15.292989 16.184662 139.999924
2 139.999924 0.000000 0.000119 -11.896863 4.045620 8.734721 139.999924
[Rope4_Seg09]
1 90.185791 0.000060 0.000060 -135.617828 2.228885 0.850567 90.185791
2 90.185791 0.000060 0.000060 -135.617828 2.228885 0.850567 90.185791
[L_rear_hand01]
1 101.696655 -8.392275 -7.654577 -12.874829 -36.868488 107.832764 102.329041
2 101.696655 -8.392275 -7.654577 -12.874829 -36.868488 107.832764 102.329041
[L_rear_hand02]
1 102.726799 -1.568258 5.773216 71.484581 71.816628 158.486160 102.900848
2 102.726799 -1.568258 5.773216 71.484581 71.816628 158.486160 102.900848
[L_rear_hand03]
1 104.552910 9.721220 -10.420293 -177.714203 -24.565960 -106.089035 105.519653
2 104.552910 9.721220 -10.420293 -177.714203 -24.565958 -106.089043 105.519653
